<svg xmlns="http://www.w3.org/2000/svg" viewBox="0 0 397.41 397.41"><defs><style>.cls-1{fill:#fff;stroke:#737373;stroke-miterlimit:10;stroke-width:2px;}.cls-2{fill:#34a853;}.cls-3{fill:#4285f4;}.cls-4{fill:#ea4335;}.cls-5{fill:#fbbc05;}</style></defs><g id="Layer_2" data-name="Layer 2"><g id="Layer_1-2" data-name="Layer 1"><path class="cls-1" d="M355,79.61a95.7,95.7,0,1,1-31.52-31.52L368.54,3a40.45,40.45,0,0,0-12.47-2H41.34A40.34,40.34,0,0,0,1,41.34V184l42.05-42.05A61.6,61.6,0,1,1,63.34,162.2L1,224.54V356.07a40.07,40.07,0,0,0,5.47,20.22l78.14-78.15a61.59,61.59,0,1,1,20.29,20.29l-76,76a40.37,40.37,0,0,0,12.45,2H184.13l56.71-56.71A61.6,61.6,0,1,1,261.13,360l-36.42,36.42H356.07a40.34,40.34,0,0,0,40.34-40.34V41.34c0-1-.08-2-.15-3Z"/><circle class="cls-2" cx="294.01" cy="306.82" r="32.78"/><circle class="cls-3" cx="272.34" cy="130.7" r="50.94"/><path class="cls-4" d="M161,288.44a32.79,32.79,0,1,0-46.37,0A32.8,32.8,0,0,0,161,288.44Z"/><circle class="cls-5" cx="96.22" cy="109.03" r="32.78"/></g></g></svg>
