<svg xmlns="http://www.w3.org/2000/svg" viewBox="0 0 1239 431.89"><defs><style>.cls-1{fill:#737373;}.cls-2{fill:#4285f4;}.cls-3{fill:#fff;stroke:#737373;stroke-miterlimit:10;stroke-width:2px;}.cls-4{fill:#34a853;}.cls-5{fill:#ea4335;}.cls-6{fill:#fbbc05;}</style></defs><g id="Layer_2" data-name="Layer 2"><g id="Layer_1-2" data-name="Layer 1"><path class="cls-1" d="M447.93,67.63h34.49V78.15h.39c7.8-7.79,17.74-13.45,28.65-13.45,18.32,0,43.85,9.16,43.85,37v65.88H520.82V111.09c0-9.94-6.82-19.49-17.93-19.49-10.33,0-20.47,9.55-20.47,19.49v56.52H447.93Z"/><path class="cls-1" d="M605.4,122.39c0,15.4,12.87,20.66,21.64,20.66,11.1,0,16-2.14,24.36-11.11l24.94,12.48c-11.3,18.9-29.62,26.11-51.84,26.11-30.21,0-55-23.78-55-52.81,0-29.24,24.75-53,55-53,30.41,0,53.6,17.93,53.6,53a35,35,0,0,1-.2,4.67Zm39-19.1c-1.56-10.52-8.77-16.17-18.9-16.17-11.89,0-18.52,7-19.1,16.17Z"/><path class="cls-1" d="M726.82,115.18c0,19.69,5.26,27.29,19.69,27.29s19.68-7.6,19.68-27.29V67.63h34.5v55.93c0,33.52-16.76,47-54.18,47s-54.18-13.45-54.18-47V67.63h34.49Z"/><path class="cls-1" d="M827,30.4h34.49V67.63h21V93.94h-21v31.77c0,9.35,2.34,13.83,7.8,13.83,4.48,0,8.58-3.11,8.58-3.11l8.57,27.86a57.07,57.07,0,0,1-25.34,6.24c-27.48,0-34.1-20.46-34.1-38.2V93.94H812.58V67.63H827Z"/><path class="cls-1" d="M926.78,122.39c0,15.4,12.87,20.66,21.64,20.66,11.1,0,16-2.14,24.36-11.11l24.94,12.48c-11.3,18.9-29.62,26.11-51.84,26.11-30.21,0-55-23.78-55-52.81,0-29.24,24.75-53,55-53,30.41,0,53.6,17.93,53.6,53a35,35,0,0,1-.2,4.67Zm39-19.1c-1.56-10.52-8.77-16.17-18.9-16.17-11.89,0-18.52,7-19.1,16.17Z"/><path class="cls-1" d="M1045.08,117.52c0,13.84,10.72,24.75,23.78,24.75a30.4,30.4,0,0,0,16.76-4.68l11.69,24s-11.3,9-33.52,9c-28.84,0-55.35-23.39-55.35-52.62,0-29.43,26.31-53.21,55.35-53.21,22.22,0,33.52,9.36,33.52,9.36l-11.69,23.58A30.4,30.4,0,0,0,1068.86,93C1055.8,93,1045.08,103.88,1045.08,117.52Z"/><path class="cls-1" d="M1111.35,0h34.49V78.15h.39c7.8-7.79,17.74-13.45,28.65-13.45,18.32,0,43.85,9.16,43.85,37v65.88h-34.49V111.09c0-9.94-6.82-19.49-17.93-19.49-10.33,0-20.47,9.55-20.47,19.49v56.52h-34.49Z"/><circle class="cls-2" cx="468.39" cy="260.19" r="20.46"/><rect class="cls-1" x="450.66" y="301.5" width="34.5" height="99.98"/><path class="cls-1" d="M509.51,301.5H544V312h.39c7.79-7.8,17.73-13.45,28.65-13.45,18.32,0,43.85,9.16,43.85,37v65.87H582.4V345c0-9.94-6.82-19.49-17.93-19.49C554.14,325.47,544,335,544,345v56.52h-34.5Z"/><path class="cls-1" d="M643,264.28h34.49V301.5h21v26.31h-21v31.77c0,9.36,2.34,13.84,7.8,13.84,4.48,0,8.57-3.12,8.57-3.12l8.58,27.87a57.07,57.07,0,0,1-25.34,6.24c-27.48,0-34.1-20.47-34.1-38.2v-38.4H628.59V301.5H643Z"/><path class="cls-1" d="M742.8,356.27c0,15.39,12.86,20.66,21.63,20.66,11.11,0,16-2.15,24.36-11.11l25,12.47c-11.3,18.91-29.62,26.12-51.84,26.12-30.21,0-55-23.78-55-52.82,0-29.23,24.75-53,55-53,30.4,0,53.59,17.93,53.59,53a37,37,0,0,1-.19,4.68Zm39-19.1C780.22,326.64,773,321,762.87,321c-11.88,0-18.51,7-19.1,16.18Z"/><path class="cls-1" d="M831.28,301.5h34.5v14.43h.39s10.91-17.35,30.6-17.35a41.37,41.37,0,0,1,21.82,6.24l-14.42,29.23s-6.43-5.46-17.93-5.46c-17.93,0-20.46,17.74-20.46,20.27v52.62h-34.5Z"/><path class="cls-1" d="M928.34,301.5h34.49V312h.39c7.8-7.8,17.74-13.45,28.65-13.45,18.32,0,43.85,9.16,43.85,37v65.87h-34.49V345c0-9.94-6.82-19.49-17.93-19.49-10.33,0-20.47,9.55-20.47,19.49v56.52H928.34Z"/><path class="cls-1" d="M1085.81,356.27c0,15.39,12.86,20.66,21.63,20.66,11.11,0,16-2.15,24.37-11.11l24.94,12.47c-11.3,18.91-29.62,26.12-51.84,26.12-30.21,0-55-23.78-55-52.82,0-29.23,24.75-53,55-53,30.4,0,53.6,17.93,53.6,53a35.19,35.19,0,0,1-.2,4.68Zm39-19.1c-1.56-10.53-8.77-16.18-18.9-16.18-11.89,0-18.52,7-19.1,16.18Z"/><path class="cls-1" d="M1179.56,264.28h34.49V301.5h21v26.31h-21v31.77c0,9.36,2.34,13.84,7.8,13.84,4.48,0,8.57-3.12,8.57-3.12l8.58,27.87a57.07,57.07,0,0,1-25.34,6.24c-27.48,0-34.1-20.47-34.1-38.2v-38.4h-14.42V301.5h14.42Z"/><path class="cls-3" d="M355,114.09a95.7,95.7,0,1,1-31.52-31.52l45.11-45.1a40.15,40.15,0,0,0-12.47-2H41.34A40.34,40.34,0,0,0,1,75.82V218.45l42.05-42a61.61,61.61,0,1,1,20.29,20.28L1,259V390.55a40.07,40.07,0,0,0,5.47,20.22l78.14-78.15a61.59,61.59,0,1,1,20.29,20.29l-76,76a40.07,40.07,0,0,0,12.45,2H184.13l56.71-56.7a61.61,61.61,0,1,1,20.29,20.28l-36.42,36.42H356.07a40.34,40.34,0,0,0,40.34-40.34V75.82c0-1-.08-2-.15-3Z"/><circle class="cls-4" cx="294.01" cy="341.3" r="32.78"/><circle class="cls-2" cx="272.34" cy="165.18" r="50.94"/><path class="cls-5" d="M161,322.92a32.79,32.79,0,1,0-46.37,0A32.79,32.79,0,0,0,161,322.92Z"/><circle class="cls-6" cx="96.22" cy="143.51" r="32.78"/></g></g></svg>